<?xml version="1.0" encoding="utf-8"?>
<!-- Generator: Adobe Illustrator 19.0.0, SVG Export Plug-In . SVG Version: 6.00 Build 0)  -->
<svg version="1.1" id="レイヤー_1" xmlns="http://www.w3.org/2000/svg" xmlns:xlink="http://www.w3.org/1999/xlink" x="0px"
	 y="0px" viewBox="-325 273.3 190 50" style="enable-background:new -325 273.3 190 50;" xml:space="preserve">
<path d="M-279.9,287.3c-0.2,0-3.8-0.9-8.8-0.9s-8.7,0.9-8.9,0.9l-0.4,0.1v10.4c0,3.7,1.6,7.1,4.6,9.6c2.2,1.9,4.4,2.7,4.5,2.7
	l0.2,0.1l0.2-0.1c0.1,0,2.3-0.8,4.5-2.7c3-2.5,4.6-5.9,4.6-9.6v-10.4L-279.9,287.3z M-296.9,288.3c1.1-0.2,4.2-0.8,8.1-0.8
	c3.4,0,6.1,0.4,7.6,0.7l-14.5,14.5c-0.7-1.4-1.1-3-1.1-4.9v-9.5H-296.9z M-284.7,306.5c-1.7,1.5-3.4,2.3-4,2.5
	c-0.8-0.3-4.3-1.9-6.4-5.2l6.4-6.4l6.4,6.4C-282.9,304.8-283.7,305.7-284.7,306.5z M-281.7,302.8l-6.2-6.2l7.3-7.3v8.6
	C-280.6,299.6-281,301.2-281.7,302.8z"/>
<g>
	<g>
		<path d="M-241.2,303.4h1.3l-2.5-4.6c0.4-0.2,0.8-0.4,1.1-0.8c0.4-0.5,0.6-1.1,0.6-1.8c0-0.9-0.3-1.6-1-2.2
			c-0.6-0.5-1.6-0.7-2.9-0.7h-2.4v10.2h1.1v-4.3c0,0,1.2,0,1.4,0c0.4,0,0.9,0,0.9,0L-241.2,303.4z M-244.3,297.9h-1.5v-3.6h1.6
			c1.6,0,2.4,0.6,2.4,1.8C-241.9,297.4-242.7,297.9-244.3,297.9z"/>
	</g>
	<g>
		<path d="M-183.2,293c-2.9,0-5.3,2.4-5.3,5.3s2.4,5.3,5.3,5.3s5.3-2.4,5.3-5.3C-178,295.4-180.3,293-183.2,293z M-183.2,302.4
			c-2.3,0-4.1-1.8-4.1-4.1s1.8-4.1,4.1-4.1s4.1,1.8,4.1,4.1S-181,302.4-183.2,302.4z"/>
		<path d="M-192.4,301.5c-0.7,0.6-1.6,0.9-2.6,0.9c-2.3,0-4.1-1.8-4.1-4.1c0-2.3,1.8-4.1,4.1-4.1c1,0,1.9,0.3,2.6,0.9l0.8-0.8
			c-0.9-0.8-2.1-1.3-3.4-1.3c-2.9,0-5.3,2.4-5.3,5.3s2.4,5.3,5.3,5.3c1.3,0,2.5-0.5,3.4-1.3L-192.4,301.5z"/>
		<g>
			<path d="M-258.2,293.2v6.6c0,1.1,0.3,1.9,1,2.6c0.7,0.8,1.6,1.1,2.7,1.1c1,0,1.9-0.4,2.7-1.1c0.6-0.7,1-1.6,1-2.6v-6.6h-1.1v6.1
				c0,1-0.2,1.6-0.5,2.1c-0.5,0.7-1.1,1-2,1c-0.8,0-1.5-0.3-2-1c-0.4-0.4-0.6-1.1-0.6-2v-6.1h-1.2V293.2z"/>
		</g>
		<polygon points="-261.5,303.4 -264.9,297.7 -261.5,293.2 -262.9,293.2 -269.2,301.5 -269.2,293.2 -270.3,293.2 -270.3,303.4 
			-269.1,303.4 -265.6,298.7 -262.9,303.4 		"/>
		<g>
			<path d="M-209.8,303.4h1.1v-10.2h-1.1v4.1h-4.9v-4.1h-1.1v10.2h1.1v-4.9h4.9V303.4z"/>
		</g>
		<g>
			<path d="M-204.7,303.4h1.1v-10.2h-1.1V303.4z"/>
		</g>
		<path d="M-229.4,303.4h1.2l-3.8-10.2h-1.3l-3.7,10.2h1.2l0.9-2.6h4.5L-229.4,303.4z M-234.4,299.7l1.8-4.9l1.8,4.9H-234.4z"/>
		<polygon points="-165,293.2 -165,293.2 -165,293.2 -169.3,302 -173.5,293.2 -173.5,293.2 -173.5,293.2 -174.7,293.2 -174.7,303.4 
			-173.5,303.4 -173.5,295.9 -169.9,303.4 -168.6,303.4 -165,295.9 -165,303.4 -163.9,303.4 -163.9,293.2 		"/>
		<path d="M-225.7,300.9c0.4,1.2,0.8,1.6,1.1,2c0.6,0.5,1.3,0.8,2.1,0.8c0.9,0,1.7-0.3,2.3-0.9c0.6-0.6,0.9-1.4,0.9-2.3
			c0-0.7-0.2-1.3-0.6-1.7c-0.4-0.5-1-0.9-1.8-1.2l-1-0.4c-0.8-0.3-1.3-0.8-1.3-1.4c0-0.4,0.2-0.8,0.5-1.1c0.3-0.3,0.7-0.4,1.2-0.4
			c0.4,0,0.7,0.1,1,0.2c0.3,0.1,0.5,0.4,0.8,0.7l0.8-0.8c-0.3-0.3-0.6-0.7-1.2-0.9c-0.4-0.2-0.9-0.3-1.5-0.3c-0.8,0-1.4,0.2-2,0.7
			s-0.9,1.2-0.9,1.9c0,0.6,0.3,1.8,2,2.5l1.1,0.4l0,0c0.8,0.3,1.2,0.6,1.3,0.9c0.2,0.3,0.3,0.6,0.3,1c0,0.6-0.2,1.1-0.6,1.4
			c-0.4,0.4-0.9,0.6-1.5,0.6c-0.6,0-1-0.2-1.4-0.5c-0.2-0.2-0.5-0.5-0.8-1.5L-225.7,300.9z"/>
	</g>
</g>
</svg>
